
<svg xmlns="http://www.w3.org/2000/svg" width="413.928" height="413.928" viewBox="0 0 413.928 413.928">



	<path d="M371.03 339.64c-8.38-15.762-17.872-33.633-17.872-61.677 0-46.918 26.024-63.424 27.084-64.072 3.85-2.277 5.115-7.245 2.837-11.095-2.284-3.857-7.257-5.12-11.102-2.843-1.43.85-35.02 21.39-35.02 78.01 0 32.084 10.957 52.71 19.76 69.283 6.31 11.865 11.29 21.246 11.29 31.968 0 7.683-1.673 13.23-4.83 16.062-3.218 2.88-7.42 2.452-7.5 2.452-.385-.058-.78-.084-1.17-.084H324.69c3.47-5.432 5.516-11.855 5.516-18.77V13.704c0-3.636-2.426-6.827-5.933-7.805-3.496-.986-7.225.503-9.107 3.615l-39.562 65.485c-12.14-.23-47.81-.51-154.588-.51-22.673 0-33.895.017-39.564.057L45.01 4.37C43.284 1.055 39.5-.656 35.9.235c-3.63.886-6.184 4.137-6.184 7.868v370.762c0 19.28 15.68 34.97 34.966 34.97h289.382c.532.046 1.286.094 2.225.094 3.96 0 11.084-.88 17.36-6.297 7.002-6.053 10.557-15.613 10.557-28.428 0-14.75-6.396-26.805-13.178-39.56zM115.04 202.22c-15.57 0-28.24-12.667-28.24-28.24 0-15.574 12.674-28.243 28.24-28.243 15.57 0 28.243 12.67 28.243 28.244 0 15.573-12.667 28.24-28.242 28.24zm79.094 32.543h-5.982l-.654 11.253c-.248 4.304-3.818 7.63-8.08 7.63-.155 0-.315-.004-.474-.01-4.464-.264-7.878-4.097-7.612-8.554l.6-10.314h-6.147c-4.47 0-8.1-3.623-8.1-8.1 0-4.478 3.63-8.1 8.1-8.1h28.35c4.472 0 8.1 3.622 8.1 8.1 0 4.477-3.63 8.095-8.1 8.095zm50.74-32.543c-15.573 0-28.245-12.667-28.245-28.24 0-15.574 12.676-28.243 28.243-28.243 15.578 0 28.255 12.67 28.255 28.244 0 15.573-12.677 28.24-28.255 28.24z" stroke="black" fill="green"/>


	<g class="eyes">

		<circle cx="245.041" cy="173.978" r="12.042" stroke="black" stroke-width="8" fill="red"/> //right eye
		<circle cx="115.041" cy="173.978" r="12.042" stroke="black" stroke-width="8" fill="red"/> //left eye
	</g>

</svg>